<svg xmlns="http://www.w3.org/2000/svg" xmlns:xlink="http://www.w3.org/1999/xlink" version="1.1" id="Layer_1" x="0px" y="0px" style="enable-background:new 0 0 2000 2000;" xml:space="preserve" viewBox="362.79 769.2 1274.51 461.7">
<style type="text/css">
	.st0{fill:#FFFFFF;}
	.st1{fill:#6F7072;}
	.st2{fill:#2CBEFF;}
	.st3{fill:#2B65EC;}
	.st4{fill:#1C1C1B;}
</style>
<g>
	<g>
		<g>
			<g>
				<path class="st2" d="M718.1,882.9v6.3H696v-22.1h5.3c-35-29.4-80-47.5-129.2-48.2c-113.9-1.8-208.4,90.3-209.3,204.3      c-0.2,19.7,2.5,38.8,7.5,56.9c84.2-59.9,92.6-186,200.9-195.9c2.1-0.2,4.5-0.3,6.6-0.4l2.3,0c1.9-0.1,3.8,0.2,5.7,0.2      c4,0.4,8.1,0.9,12.1,1.7c40.4,7.8,72.6,38.1,91.8,73.3c0.4,0.8,0.1,1.7-0.6,2.2l-2.4,1.4c-0.6,0.3-1.2,0.3-1.8-0.1      c-4-3-8.1-5.9-12.2-8.7c-7.2-4.9-15.7-7.9-24.5-8.1h-0.2l-2.1,0c-0.7,0-1.4,0.1-2,0.1c-0.7,0.1-1.3,0.1-2,0.2l-2,0.3      c-0.7,0.1-1.3,0.3-2,0.4c-2,0.4-3.9,1-5.8,1.7c-2.5,0.9-4.9,2.1-7.2,3.4c-1.1,0.7-2.3,1.4-3.4,2.2c-0.6,0.4-1.1,0.8-1.6,1.2      c-0.5,0.4-1.8,1.4-2.4,1.9c-0.5,0.5-1.8,1.6-2.3,2c-0.8,0.8-2,2-2.8,2.8c-13,14.1-20.1,33.2-21.9,52.2c-0.7,8.2-0.3,16.5,1,24.6      c1,6.6,2.3,12.9,4,19.3c0.3,1.3,0.7,2.5,1.1,3.8c0.4,1.3,0.8,2.5,1.1,3.7c0.4,1.1,0.8,2.6,1.3,3.7c1.7,4.8,3.8,9.6,6.3,14.1      l1,1.7c0.5,1,1.4,2.3,2,3.3c0.4,0.5,1.3,1.9,1.6,2.4c0.4,0.5,1.3,1.8,1.7,2.3c0.8,1,1.6,2,2.5,3c0.5,0.6,1,1.1,1.5,1.6      c12.2-10.3,22.1-23.5,33.2-36.9c18.5-22.4,40.6-37.6,71.2-36.5c1.4,0.1,2.8,0.1,4.2,0.2c1.2,0.1,3.1,0.4,4.3,0.6      c12,2,23.3,7.1,32.8,14.6c4.4,3.5,8.5,7.6,11.9,12c1.1-8.7,1.7-17.6,1.7-26.6C774.8,969.8,753.2,919.9,718.1,882.9z       M736.3,946.1H707v-29.3h29.3V946.1z"/>
			</g>
			<path class="st3" d="M768.1,1058c-1.4-0.4-2.7-0.6-4.1-0.9c-1.3-0.2-2.7-0.3-4-0.4c-5.3-0.3-10.2,0.6-14.5,2.4     c-2.2,0.9-4.3,2-6.3,3.2c-2,1.2-4,2.7-5.9,4.3c-3.8,3.2-7,7.4-9,12.3c-1,2.4-1.8,5-2.3,7.6c-0.2,1.3-0.5,2.7-0.6,4     c-0.1,0.7-0.1,1.4-0.2,2c0,0.7,0,1.3,0,2c0,5.3,1.2,10.8,3.6,15.7c1.2,2.5,2.7,4.8,4.5,6.9c1.8,2.1,3.9,4,6.2,5.6     c1.2,0.8,2.4,1.5,3.7,2.2c1.3,0.6,2.6,1.2,4,1.6c1.4,0.5,2.8,0.8,4.2,1c12-20.8,20.4-43.9,24.5-68.4     C770.6,1058.7,769.3,1058.3,768.1,1058z"/>
			<path class="st3" d="M745,1129.8C744.9,1129.8,744.9,1129.8,745,1129.8c-0.8-0.1-1.6-0.1-2.4-0.2c-1.6-0.2-3.1-0.6-4.7-1     c-1.5-0.5-3.1-1-4.5-1.8c-0.7-0.3-1.4-0.7-2.2-1.1c-0.7-0.4-1.4-0.8-2.1-1.3c-1.4-0.9-2.7-1.9-3.9-3c-2.5-2.2-4.7-4.7-6.6-7.4     c-1.9-2.8-3.4-5.7-4.6-8.9c-1.2-3.2-2-6.5-2.4-9.8c-0.1-0.8-0.2-1.7-0.2-2.5c-0.1-0.8-0.1-1.7-0.1-2.5c0-1.7,0-3.4,0.2-5     c0.3-3.4,0.9-6.7,1.9-10c1.9-6.5,5-13,9.6-18.5c4.6-5.5,11.1-9.8,18.3-11.5c1.3-0.3,2.6-0.5,4-0.7c-15.7-4-32.3-2.2-47.6,6.7     c-1.7,1.1-3.4,2.1-4.9,3.4c-16.1,12.5-25.3,31.2-38.5,47.7c-15.1,20-35.6,35.9-60.2,42.7c-10.5,3-21.4,4.5-32.3,4.9     c-4.7,0.1-9.3,0.2-14-0.1c-32.5-1.7-65.3-14.2-90.2-35.4c0.8-0.8,1.6-1.6,2.5-2.4c4.4-4.4,8.7-8.9,12.8-13.5     c26.1,15.4,57.3,22.6,87.1,20.1c8.5-0.7,17-2,25.1-4.5c4.3-1.2,8.3-2.8,12.1-4.6c-0.1-0.1-0.2-0.1-0.3-0.2     c-1.1-0.7-2.2-1.6-3.3-2.4c-0.7-0.6-2.4-2-3.1-2.6c-0.7-0.6-1.3-1.2-2-1.8c-1.4-1.2-2.5-2.5-3.8-3.9     c-19.9-21.7-25.3-50.4-20.1-78.6c1.1-6.7,2.6-13.3,4.5-19.8c5.7-19.5,16.1-38,32-51.1c1.1-1,2.9-2.2,4.1-3.1     c0.7-0.5,2.5-1.7,3.2-2.2c0.8-0.5,2.6-1.5,3.4-2c2.3-1.3,4.6-2.4,7-3.4c3.2-1.3,6.5-2.4,10-3c2.5-0.6,5.1-0.9,7.7-1.1     c0.7,0,1.5-0.1,2.2-0.1c-11.5-4.9-23.4-8.3-35.8-9.2c-1-0.1-2.1-0.1-3.1-0.2c-1,0-2.1,0-3.1,0l-3,0c-1,0.1-2,0.1-3,0.2l-2.9,0.3     c-1.6,0.2-3.3,0.4-5,0.7c-0.4,0.1-0.8,0.3-1.2,0.4c-0.6,0.1-1.2,0.5-1.8,0.7l-1.4,0.4c-1,0.3-2,0.6-3,0.9     c-8.9,2.7-17.1,6.5-24.4,11.9c-4.2,3-8.2,6.5-11.8,10.2c-2,1.9-4,4.1-5.8,6.2l-1,1.1c-22.4,26.7-36.3,54.8-59.5,85.1     c-8.6,11.4-18.2,22.7-28.5,32.9c-17,17-37.5,31.4-59.8,40.9c33.8,67.7,103.7,114.1,184.4,114.1c75.4,0,141.4-40.5,177.3-101     C745.7,1129.8,745.3,1129.8,745,1129.8z"/>
			<path class="st4" d="M460,1112C460,1112,460,1112,460,1112c-0.1,0.1-0.2,0.2-0.2,0.2L460,1112z"/>
		</g>
		<rect x="736.5" y="835" class="st2" width="33.8" height="33.8"/>
		<rect x="784.9" y="879.3" class="st3" width="27.5" height="27.5"/>
		<rect x="790.9" y="807.8" class="st2" width="22.1" height="22.1"/>
		<rect x="731.5" y="789.4" class="st2" width="22.1" height="22.1"/>
		<rect x="783.6" y="769.2" class="st3" width="14.6" height="14.6"/>
	</g>
	<g>
		<g>
			<path class="st1" d="M917,893.5V949h-15.3v-55.5h-21.2v-14.1h57.7v14.1H917z"/>
			<path class="st1" d="M1003.5,949v-28h-28.2v28h-15.3v-69.6h15.3V907h28.2v-27.6h15.3V949H1003.5z"/>
			<path class="st1" d="M1045.5,949v-69.6h52.4V893h-37.3v14.1h32.8v13.6h-32.8v14.6h37.8V949H1045.5z"/>
			<path class="st1" d="M1223.3,927.9c-1.8,4.2-4.3,7.9-7.6,11c-3.3,3.1-7.2,5.6-11.7,7.4c-4.5,1.8-9.5,2.7-15,2.7h-27.2v-69.6h27.2     c5.4,0,10.4,0.9,15,2.6c4.5,1.8,8.5,4.2,11.7,7.3c3.3,3.1,5.8,6.8,7.6,11c1.8,4.2,2.7,8.8,2.7,13.7v0.2     C1226,919.1,1225.1,923.7,1223.3,927.9z M1210,914.2c0-3-0.5-5.9-1.5-8.5c-1-2.6-2.5-4.8-4.3-6.7c-1.8-1.9-4-3.3-6.6-4.3     c-2.6-1-5.4-1.5-8.6-1.5h-11.8v42h11.8c3.1,0,6-0.5,8.6-1.5c2.6-1,4.8-2.4,6.6-4.3c1.8-1.9,3.2-4,4.3-6.6c1-2.5,1.5-5.3,1.5-8.5     V914.2z"/>
			<path class="st1" d="M1250.3,949v-69.6h15.3V949H1250.3z"/>
			<path class="st1" d="M1343.4,947c-4.9,2.2-10.6,3.2-17,3.2c-5.4,0-10.4-0.9-14.9-2.7c-4.5-1.8-8.3-4.3-11.5-7.5     c-3.2-3.2-5.7-7-7.5-11.3c-1.8-4.4-2.7-9.2-2.7-14.3v-0.2c0-5,0.9-9.6,2.7-14c1.8-4.3,4.4-8.2,7.6-11.4c3.2-3.3,7.1-5.9,11.5-7.8     c4.4-1.9,9.3-2.8,14.6-2.8c3.1,0,6,0.2,8.5,0.6c2.6,0.4,4.9,1,7.1,1.8c2.2,0.8,4.2,1.8,6.2,3c1.9,1.2,3.8,2.6,5.6,4.1l-9.6,11.6     c-1.3-1.1-2.7-2.1-4-3c-1.3-0.9-2.7-1.6-4.1-2.2s-3-1.1-4.6-1.4c-1.7-0.3-3.5-0.5-5.5-0.5c-2.8,0-5.4,0.6-7.8,1.7     c-2.4,1.2-4.5,2.7-6.4,4.7c-1.8,2-3.2,4.3-4.3,6.9c-1,2.6-1.5,5.4-1.5,8.4v0.2c0,3.2,0.5,6.1,1.5,8.8c1,2.7,2.5,5,4.4,7     c1.9,2,4.1,3.5,6.7,4.6c2.6,1.1,5.4,1.6,8.5,1.6c5.7,0,10.5-1.4,14.4-4.2v-10H1326v-13.2h30.2v30.2     C1352.6,942.2,1348.4,944.8,1343.4,947z"/>
			<path class="st1" d="M1381.6,949v-69.6h15.3V949H1381.6z"/>
			<path class="st1" d="M1455.8,893.5V949h-15.3v-55.5h-21.2v-14.1h57.7v14.1H1455.8z"/>
			<path class="st1" d="M1550.5,949l-6.4-15.6h-29.4l-6.4,15.6h-15.6l29.8-70.1h14.1l29.8,70.1H1550.5z M1529.4,897.3l-9.3,22.6     h18.5L1529.4,897.3z"/>
			<path class="st1" d="M1587.2,949v-69.6h15.3v55.8h34.7V949H1587.2z"/>
		</g>
		<g>
			<path class="st2" d="M948.9,994.7c-7.3-6.8-16.7-10.2-28.1-10.2h-40.2v169.8h40.2c11.7,0,20.9-3.2,27.9-9.5     c4.1-3.6,7.2-8.1,9.5-13.6c1.9-5.2,2.9-11.1,2.9-17.7v-87.3C961,1012.6,957,1002.1,948.9,994.7z M934.4,1113.5     c0,5.7-1.1,9.5-3.4,11.4c-1.9,1.8-5.3,2.7-10.2,2.7h-13.5v-116.4h13.5c4.5,0,7.8,1,9.9,2.9c2.4,2.4,3.6,6.5,3.6,12.1V1113.5z"/>
			<path class="st2" d="M1048.6,1011.2v-26.7h-70.3v169.8h70.3v-26.7H1005v-47.1h30.1v-26.7H1005v-42.7H1048.6z"/>
			<path class="st2" d="M1141,1039.3v-15.1c0-13.4-4-24-12.1-31.8c-7.1-6.6-16.5-9.9-28.1-9.9c-11.3,0-20.7,3.3-28.1,9.9     c-8.1,8.1-12.1,18.7-12.1,31.8v90.2c0,13.1,4,23.7,12.1,31.8c7.4,6.6,16.8,9.9,28.1,9.9c11.7,0,21.1-3.3,28.1-9.9     c8.1-7.8,12.1-18.4,12.1-31.8v-21.8h-26.7v21.8c0,6-1.1,10-3.4,12.1c-2.1,2-5.5,2.9-10.2,2.9c-4.5,0-7.8-1-9.9-2.9     c-2.4-2.2-3.6-6.3-3.6-12.1v-90.2c0-5.8,1.2-9.9,3.6-12.1c2.1-1.9,5.4-2.9,9.9-2.9c4.7,0,8.1,1,10.2,2.9     c2.3,2.1,3.4,6.2,3.4,12.1v15.1H1141z"/>
			<path class="st2" d="M1242.4,984.5h-28.9l-29.6,68.9v-68.9h-26.7v169.8h26.7v-33.2l9.2-21.1l20.6,54.4h28.6l-34.2-89.3     L1242.4,984.5z"/>
			<path class="st2" d="M1309.1,984.5v69.4h-27.2v-69.4h-26.7v169.8h26.7v-73.7h27.2v73.7h26.7V984.5H1309.1z"/>
			<path class="st2" d="M1409.2,984.5h-26.7l-34,169.8h27.2l4.9-26.9h30.5l4.9,26.9h27.1L1409.2,984.5z M1385.2,1100.7l10.7-60.9     l10.7,60.9H1385.2z"/>
			<path class="st2" d="M1511.6,984.5v85.9l-40.8-85.9h-15.5v169.8h12.2c3.8-1.4,7.3-3,10.5-4.9l0.3-0.1c1.3-0.7,2.5-1.4,3.6-2.3     v-78.9l24.5,51.7c2-2.6,4-5.2,6.2-7.8c4.3-5.1,9-10.2,14.8-14.7c3.3-2.6,6.9-4.9,10.9-6.9v-106H1511.6z"/>
			<path class="st2" d="M1625.1,994.7c-7.3-6.8-16.7-10.2-28.1-10.2h-40.3V1085c3.3-0.5,6.5-0.8,9.8-0.8c5.7,0,11.4,0.8,16.9,2.3     v-75.3h13.6c4.5,0,7.8,1,9.9,2.9c2.4,2.4,3.6,6.5,3.6,12.1v76.5c1.3,1.3,2.6,2.7,3.8,4.2c3.3,4,6.3,8.8,8.1,14.6     c0.2,0.4,0.2,0.8,0.3,1.1c0.1,0.3,0.2,0.5,0.3,0.8l0,0c0.1,0.4,0.3,0.8,0.3,1.3l0,0c0,0.1,0,0.1,0,0.2l0,0.6     c0.5,4.7-1.6,9.2-5.4,11.8c-0.1,0-0.2,0.1-0.3,0.2c-0.3,0.2-0.6,0.5-1,0.6c-0.2,0.1-0.4,0.2-0.5,0.3c-0.3,0.1-0.6,0.3-0.9,0.4     c-0.3,0.1-0.7,0.2-1,0.3c-0.3,0.1-0.6,0.2-0.9,0.3l-0.8,0.2c-2.6,0.5-5.4,0.3-7.8-0.9c-2.9-1.3-4.6-1.7-6.7-1.8h-0.5     c-1.2,0-2.4,0.3-3.7,0.9c-1.3,0.6-2.6,1.6-3.7,2.8c-2.3,2.4-3.7,5.9-3.7,8.6v0.5c0,1.4,0.5,3,1.4,4.4c0.1,0.1,0.2,0.3,0.3,0.3h9     c11.6,0,20.9-3.2,27.9-9.5c4-3.6,7.2-8.1,9.4-13.6c2-5.2,2.9-11.1,2.9-17.7v-87.3C1637.2,1012.6,1633.2,1002.1,1625.1,994.7z"/>
		</g>
		<path class="st1" d="M1637.1,1171.4c-9.7-9.1-27-4-38.7-2c-12.8,4-25-7.6-24.6-20.3c0.1-12.8,11.4-25.3,24.6-24.7    c4.1,0.1,7.7,1.2,11.6,3c0.3,0.1,0.6,0.1,0.7-0.2c0,0,0.1-0.1,0.1-0.1c0,0,0,0,0.1,0.1c0,0,0-0.1,0-0.1c0.1-0.2,0.1-0.4-0.1-0.6    c0,0-0.1-0.1-0.1-0.1c-1.8-8-9.1-15.4-15.7-20.4c-10.7-7.7-24.4-10.5-37.4-8.2c-35.8,5.1-44.3,47-73.3,62.8    c-5.6,3.2-11.6,5.6-17.7,7.7c-3.5,1.2-7.1,2.2-10.8,3.3c-0.3,0.1-0.5,0.4-0.5,0.7c0,0.4,0.3,0.7,0.7,0.7c11.5,0.1,23.2-1.4,33.9-6    c37.7-15.8,38.4-59.1,81.4-60.1c12.3-0.3,22.7,5.4,31.5,12.8c-7.6-3.8-17.4-3.3-24.5,1.7c-20.5,13.2-14.5,51.8,11.5,53.2    c14.1-0.1,33.7-12,46.6-2.2C1636.8,1172.5,1637.5,1171.8,1637.1,1171.4z"/>
	</g>
</g>
</svg>